<?xml version="1.0" encoding="UTF-8" standalone="no"?>
<!DOCTYPE svg PUBLIC "-//W3C//DTD SVG 1.1//EN" "http://www.w3.org/Graphics/SVG/1.1/DTD/svg11.dtd">
<svg width="100%" height="100%" viewBox="0 0 1278 936" version="1.1" xmlns="http://www.w3.org/2000/svg" xmlns:xlink="http://www.w3.org/1999/xlink" xml:space="preserve" xmlns:serif="http://www.serif.com/" style="fill-rule:evenodd;clip-rule:evenodd;stroke-linejoin:round;stroke-miterlimit:2;">
    <g transform="matrix(1,0,0,1,-1664.99,-1527.96)">
        <g transform="matrix(1.52488,0,0,3.10995,-169.908,-3750.28)">
            <g transform="matrix(50,0,0,50,1197.05,1964.54)">
                <path d="M0.125,-0.125L0.125,-1L0.375,-1L0.375,-0.25L0.875,-0.25L0.875,-0.125L0.125,-0.125Z" style="fill:white;fill-rule:nonzero;"/>
            </g>
            <g transform="matrix(50,0,0,50,1247.05,1964.54)">
                <path d="M0.375,-0.875L0.375,-1L0.625,-1L0.625,-0.875L0.375,-0.875ZM0.125,-0.125L0.125,-0.25L0.375,-0.25L0.375,-0.625L0.25,-0.625L0.25,-0.75L0.625,-0.75L0.625,-0.25L0.875,-0.25L0.875,-0.125L0.125,-0.125Z" style="fill:white;fill-rule:nonzero;"/>
            </g>
            <g transform="matrix(50,0,0,50,1297.05,1964.54)">
                <path d="M0.375,-0.125L0.375,-0.625L0.125,-0.625L0.125,-0.75L0.375,-0.75L0.375,-1L0.625,-1L0.625,-0.75L0.875,-0.75L0.875,-0.625L0.625,-0.625L0.625,-0.125L0.375,-0.125Z" style="fill:white;fill-rule:nonzero;"/>
            </g>
            <g transform="matrix(50,0,0,50,1347.05,1964.54)">
                <path d="M0.375,-0.125L0.375,-0.625L0.125,-0.625L0.125,-0.75L0.375,-0.75L0.375,-1L0.625,-1L0.625,-0.75L0.875,-0.75L0.875,-0.625L0.625,-0.625L0.625,-0.125L0.375,-0.125Z" style="fill:white;fill-rule:nonzero;"/>
            </g>
            <g transform="matrix(50,0,0,50,1397.05,1964.54)">
                <path d="M0.125,-0.125L0.125,-0.25L0.375,-0.25L0.375,-0.875L0.25,-0.875L0.25,-1L0.625,-1L0.625,-0.25L0.875,-0.25L0.875,-0.125L0.125,-0.125Z" style="fill:white;fill-rule:nonzero;"/>
            </g>
            <g transform="matrix(50,0,0,50,1447.05,1964.54)">
                <path d="M0.125,-0.125L0.125,-0.25L0,-0.25L0,-0.625L0.125,-0.625L0.125,-0.75L0.75,-0.75L0.75,-0.625L0.875,-0.625L0.875,-0.375L0.25,-0.375L0.25,-0.25L0.75,-0.25L0.75,-0.125L0.125,-0.125ZM0.25,-0.5L0.625,-0.5L0.625,-0.625L0.25,-0.625L0.25,-0.5Z" style="fill:white;fill-rule:nonzero;"/>
            </g>
            <g transform="matrix(50,0,0,50,1547.05,1964.54)">
                <path d="M0.25,-0.125L0.25,-0.25L0.125,-0.25L0.125,-0.375L0,-0.375L0,-0.75L0.125,-0.75L0.125,-0.875L0.25,-0.875L0.25,-1L0.875,-1L0.875,-0.875L0.375,-0.875L0.375,-0.75L0.25,-0.75L0.25,-0.375L0.375,-0.375L0.375,-0.25L0.625,-0.25L0.625,-0.5L0.5,-0.5L0.5,-0.625L0.875,-0.625L0.875,-0.125L0.25,-0.125Z" style="fill:white;fill-rule:nonzero;"/>
            </g>
            <g transform="matrix(50,0,0,50,1597.05,1964.54)">
                <path d="M0.125,-0.125L0.125,-0.25L0,-0.25L0,-0.75L0.25,-0.75L0.25,-0.25L0.625,-0.25L0.625,-0.75L0.875,-0.75L0.875,-0.125L0.125,-0.125Z" style="fill:white;fill-rule:nonzero;"/>
            </g>
            <g transform="matrix(50,0,0,50,1647.05,1964.54)">
                <path d="M0.125,-0L0.125,-0.125L0.625,-0.125L0.625,-0.25L0.125,-0.25L0.125,-0.375L0,-0.375L0,-0.75L0.25,-0.75L0.25,-0.375L0.625,-0.375L0.625,-0.75L0.875,-0.75L0.875,-0.125L0.75,-0.125L0.75,-0L0.125,-0Z" style="fill:white;fill-rule:nonzero;"/>
            </g>
            <g transform="matrix(50,0,0,50,1697.05,1964.54)">
                <path d="M0,-0.125L0,-0.25L0.625,-0.25L0.625,-0.375L0.125,-0.375L0.125,-0.5L0,-0.5L0,-0.625L0.125,-0.625L0.125,-0.75L0.75,-0.75L0.75,-0.625L0.25,-0.625L0.25,-0.5L0.75,-0.5L0.75,-0.375L0.875,-0.375L0.875,-0.25L0.75,-0.25L0.75,-0.125L0,-0.125Z" style="fill:white;fill-rule:nonzero;"/>
            </g>
            <g transform="matrix(50,0,0,50,1797.05,1964.54)">
                <path d="M0.25,-0.125L0.25,-0.25L0.125,-0.25L0.125,-0.375L0,-0.375L0,-0.75L0.125,-0.75L0.125,-0.875L0.25,-0.875L0.25,-1L0.875,-1L0.875,-0.875L0.375,-0.875L0.375,-0.75L0.25,-0.75L0.25,-0.375L0.375,-0.375L0.375,-0.25L0.625,-0.25L0.625,-0.5L0.5,-0.5L0.5,-0.625L0.875,-0.625L0.875,-0.125L0.25,-0.125Z" style="fill:white;fill-rule:nonzero;"/>
            </g>
            <g transform="matrix(50,0,0,50,1847.05,1964.54)">
                <path d="M0.125,-0.125L0.125,-0.25L0,-0.25L0,-0.375L0.125,-0.375L0.125,-0.5L0.625,-0.5L0.625,-0.625L0.125,-0.625L0.125,-0.75L0.75,-0.75L0.75,-0.625L0.875,-0.625L0.875,-0.125L0.125,-0.125ZM0.25,-0.25L0.625,-0.25L0.625,-0.375L0.25,-0.375L0.25,-0.25Z" style="fill:white;fill-rule:nonzero;"/>
            </g>
            <g transform="matrix(50,0,0,50,1897.05,1964.54)">
                <path d="M0,-0.125L0,-0.75L0.75,-0.75L0.75,-0.625L0.875,-0.625L0.875,-0.125L0.625,-0.125L0.625,-0.625L0.5,-0.625L0.5,-0.125L0.25,-0.125L0.25,-0.625L0.125,-0.625L0.125,-0.125L0,-0.125Z" style="fill:white;fill-rule:nonzero;"/>
            </g>
            <g transform="matrix(50,0,0,50,1947.05,1964.54)">
                <path d="M0.125,-0.125L0.125,-0.25L0,-0.25L0,-0.625L0.125,-0.625L0.125,-0.75L0.75,-0.75L0.75,-0.625L0.875,-0.625L0.875,-0.375L0.25,-0.375L0.25,-0.25L0.75,-0.25L0.75,-0.125L0.125,-0.125ZM0.25,-0.5L0.625,-0.5L0.625,-0.625L0.25,-0.625L0.25,-0.5Z" style="fill:white;fill-rule:nonzero;"/>
            </g>
            <g transform="matrix(50,0,0,50,1997.05,1964.54)">
                <path d="M0,-0.125L0,-0.25L0.625,-0.25L0.625,-0.375L0.125,-0.375L0.125,-0.5L0,-0.5L0,-0.625L0.125,-0.625L0.125,-0.75L0.75,-0.75L0.75,-0.625L0.25,-0.625L0.25,-0.5L0.75,-0.5L0.75,-0.375L0.875,-0.375L0.875,-0.25L0.75,-0.25L0.75,-0.125L0,-0.125Z" style="fill:white;fill-rule:nonzero;"/>
            </g>
        </g>
        <g transform="matrix(0.621913,0,0,0.621913,1253.9,1110.91)">
            <g transform="matrix(1,0,0,1,-54.0097,-1303.46)">
                <g id="Rat-Body-Left" serif:id="Rat Body Left">
                    <path d="M1426.72,2134.87C1426.72,2134.87 1400.65,2144.3 1360.24,2170.89C1327.05,2192.72 1286.28,2231.64 1286.28,2231.64L1318.4,2219.71C1318.4,2219.71 1276.27,2249.3 1241.99,2305.18C1214.81,2349.48 1192.04,2414.68 1202.88,2463.83C1202.88,2463.83 1211.54,2415.29 1221.64,2408.79C1221.64,2408.79 1203.29,2464.01 1231.98,2527.88C1237.71,2540.64 1247.88,2558.11 1259.94,2573.15C1278.18,2595.9 1301.24,2614.63 1318.8,2624.51C1351.09,2642.69 1378.07,2654.01 1406.22,2655.39C1441.49,2657.12 1478.2,2642.48 1504.77,2609.74C1513.14,2599.42 1517.22,2592.15 1521.93,2574.25C1552.32,2458.74 1499.92,2463.09 1527.88,2411.08C1527.88,2411.08 1535.3,2401.44 1545.76,2401.38C1549.62,2401.36 1555.28,2401 1559.68,2402.17C1564.88,2403.56 1569.88,2408.31 1588.1,2423.85C1594.04,2428.91 1605.16,2442.35 1614.41,2445.87C1614.41,2445.87 1628.48,2448.81 1627.38,2433.99C1626.28,2419.18 1617.16,2377.72 1606.34,2357.08C1595.52,2336.43 1617.76,2309.18 1641.81,2275.91C1665.86,2242.64 1724.58,2155.07 1725.78,2151.06C1726.99,2147.05 1733.2,2110.78 1726.58,2101.36C1724.39,2098.23 1711.65,2094.02 1694.49,2092.24C1659.96,2088.66 1607.52,2089.6 1586.9,2091.74C1556.04,2094.94 1523.77,2102.56 1523.77,2102.56C1523.77,2102.56 1534.66,2082.28 1529.65,2059.64C1524.64,2036.99 1499.99,1997.71 1453.3,1981.68C1406.6,1965.65 1381.15,1979.07 1366.32,1984.28C1351.49,1989.49 1334.25,2012.94 1334.25,2041C1334.25,2069.06 1358.7,2100.32 1375.94,2110.14C1393.17,2119.96 1426.72,2134.87 1426.72,2134.87Z" style="fill:rgb(136,132,131);"/>
                </g>
            </g>
            <g transform="matrix(-1,0,0,1,3429.51,-1303.46)">
                <g id="Rat-Body-Right" serif:id="Rat Body Right">
                    <path d="M1426.72,2134.87C1426.72,2134.87 1400.65,2144.3 1360.24,2170.89C1327.05,2192.72 1286.28,2231.64 1286.28,2231.64L1318.4,2219.71C1318.4,2219.71 1276.27,2249.3 1241.99,2305.18C1214.81,2349.48 1192.04,2414.68 1202.88,2463.83C1202.88,2463.83 1211.54,2415.29 1221.64,2408.79C1221.64,2408.79 1203.29,2464.01 1231.98,2527.88C1237.71,2540.64 1247.88,2558.11 1259.94,2573.15C1278.18,2595.9 1301.24,2614.63 1318.8,2624.51C1351.09,2642.69 1378.07,2654.01 1406.22,2655.39C1441.49,2657.12 1478.2,2642.48 1504.77,2609.74C1513.14,2599.42 1517.22,2592.15 1521.93,2574.25C1552.32,2458.74 1499.92,2463.09 1527.88,2411.08C1527.88,2411.08 1535.3,2401.44 1545.76,2401.38C1549.62,2401.36 1555.28,2401 1559.68,2402.17C1564.88,2403.56 1569.88,2408.31 1588.1,2423.85C1594.04,2428.91 1605.16,2442.35 1614.41,2445.87C1614.41,2445.87 1628.48,2448.81 1627.38,2433.99C1626.28,2419.18 1617.16,2377.72 1606.34,2357.08C1595.52,2336.43 1617.76,2309.18 1641.81,2275.91C1665.86,2242.64 1724.58,2155.07 1725.78,2151.06C1726.99,2147.05 1733.2,2110.78 1726.58,2101.36C1719.97,2091.94 1617.76,2088.53 1586.9,2091.74C1556.04,2094.94 1523.77,2102.56 1523.77,2102.56C1523.77,2102.56 1534.66,2082.28 1529.65,2059.64C1524.64,2036.99 1499.99,1997.71 1453.3,1981.68C1406.6,1965.65 1381.15,1979.07 1366.32,1984.28C1351.49,1989.49 1334.25,2012.94 1334.25,2041C1334.25,2069.06 1358.7,2100.32 1375.94,2110.14C1393.17,2119.96 1426.72,2134.87 1426.72,2134.87Z" style="fill:rgb(136,132,131);"/>
                </g>
            </g>
            <g transform="matrix(1,0,0,1,-54.0097,-1303.46)">
                <g id="Tail-Left" serif:id="Tail Left">
                    <path d="M1405.04,2656.06C1405.04,2656.06 1402.23,2636.62 1398.83,2620.79C1395.42,2604.95 1376.58,2590.52 1356.74,2591.33C1336.9,2592.13 1321.47,2609.36 1318.86,2625.19C1317.59,2632.94 1318.16,2651.25 1321.77,2670.1C1325.54,2689.77 1332.54,2710.05 1339.91,2720.59C1354.34,2741.23 1372.05,2769.72 1412.45,2792.58C1452.84,2815.43 1471,2821.07 1521.73,2828.27C1572.46,2835.47 1633.52,2853.95 1647.92,2883.07C1647.92,2883.07 1652.31,2886.2 1653.87,2896.85C1655.44,2907.49 1655.75,2910 1650.43,2920.33C1645.11,2930.67 1635.4,2948.52 1609.1,2954.47C1582.79,2960.41 1550.85,2966.99 1487.6,2952.27C1487.6,2952.27 1500.64,2964.24 1529.37,2971.84C1536.69,2973.77 1543.24,2976.33 1550.68,2977.87C1565.68,2980.98 1590.59,2982.28 1591.99,2982.23C1591.99,2982.23 1671.39,2985.45 1692.69,2950.88C1713.98,2916.31 1715.23,2897.77 1688.18,2852.18C1661.12,2806.59 1588.48,2786.8 1569.44,2780.54C1550.4,2774.27 1492.78,2771.27 1447.44,2729.18C1447.44,2729.18 1414.07,2692.86 1409.59,2671.57L1405.04,2656.06Z" style="fill:rgb(211,159,166);"/>
                </g>
            </g>
            <g transform="matrix(-1,0,0,1,3426.74,-1303.46)">
                <g id="Tail-Right" serif:id="Tail Right">
                    <path d="M1405.04,2656.06C1405.04,2656.06 1402.23,2636.62 1398.83,2620.79C1395.42,2604.95 1376.58,2590.52 1356.74,2591.33C1336.9,2592.13 1321.47,2609.36 1318.86,2625.19C1317.59,2632.94 1318.16,2651.25 1321.77,2670.1C1325.54,2689.77 1332.54,2710.05 1339.91,2720.59C1354.34,2741.23 1372.05,2769.72 1412.45,2792.58C1452.84,2815.43 1471,2821.07 1521.73,2828.27C1572.46,2835.47 1633.52,2853.95 1647.92,2883.07C1647.92,2883.07 1652.31,2886.2 1653.87,2896.85C1655.44,2907.49 1655.75,2910 1650.43,2920.33C1645.11,2930.67 1635.4,2948.52 1609.1,2954.47C1582.79,2960.41 1550.85,2966.99 1487.6,2952.27C1487.6,2952.27 1500.64,2964.24 1529.37,2971.84C1536.69,2973.77 1543.24,2976.33 1550.68,2977.87C1565.68,2980.98 1590.59,2982.28 1591.99,2982.23C1591.99,2982.23 1671.39,2985.45 1692.69,2950.88C1713.98,2916.31 1715.23,2897.77 1688.18,2852.18C1661.12,2806.59 1588.48,2786.8 1569.44,2780.54C1550.4,2774.27 1492.78,2771.27 1447.44,2729.18C1447.44,2729.18 1414.07,2692.86 1409.59,2671.57L1405.04,2656.06Z" style="fill:rgb(211,159,166);"/>
                </g>
            </g>
            <g transform="matrix(1,0,0,1,-56.2016,-1303.78)">
                <g id="Gamepad">
                    <path d="M1371.17,2396.02L1331.21,2396.02C1308.79,2396.02 1290.59,2377.82 1290.59,2355.41C1290.59,2332.99 1308.79,2314.79 1331.21,2314.79L1371.17,2314.79L1371.17,2274.83C1371.17,2252.42 1389.37,2234.22 1411.78,2234.22C1434.2,2234.22 1452.39,2252.42 1452.39,2274.83L1452.39,2314.79L1492.36,2314.79C1514.77,2314.79 1532.97,2332.99 1532.97,2355.41C1532.97,2377.82 1514.77,2396.02 1492.36,2396.02L1452.39,2396.02L1452.39,2435.98C1452.39,2458.4 1434.2,2476.6 1411.78,2476.6C1389.37,2476.6 1371.17,2458.4 1371.17,2435.98L1371.17,2396.02Z" style="fill:rgb(51,51,51);"/>
                </g>
            </g>
            <g id="Buttons">
                <g transform="matrix(1.09739,0,0,1.09739,-275.363,-1536.04)">
                    <circle cx="2101.78" cy="2290.33" r="42.743" style="fill:rgb(51,51,51);"/>
                </g>
                <g transform="matrix(1.09739,0,0,1.09739,-350.202,-1460.57)">
                    <circle cx="2101.78" cy="2290.33" r="42.743" style="fill:rgb(51,51,51);"/>
                </g>
                <g transform="matrix(1.09739,0,0,1.09739,-274.424,-1386.67)">
                    <circle cx="2101.78" cy="2290.33" r="42.743" style="fill:rgb(51,51,51);"/>
                </g>
                <g transform="matrix(1.09739,0,0,1.09739,-200.211,-1461.51)">
                    <circle cx="2101.78" cy="2290.33" r="42.743" style="fill:rgb(51,51,51);"/>
                </g>
            </g>
            <g id="Nose">
                <g transform="matrix(1.31014,0,0,1.31014,-619.361,-1968.07)">
                    <circle cx="1761.31" cy="2105.57" r="39.377" style="fill:rgb(51,51,51);"/>
                </g>
                <g transform="matrix(0.933897,0,0,1.67347,50.2067,-2708.23)">
                    <ellipse cx="1752.32" cy="2079.91" rx="22.738" ry="9.82" style="fill:rgb(218,218,218);"/>
                </g>
            </g>
        </g>
        <g transform="matrix(1,0,0,1,-209.972,-109.964)">
            <g transform="matrix(58.3333,0,0,58.3333,2283.82,2580.96)">
                <path d="M0,-0.125L0,-1L0.875,-1L0.875,-0.875L0.25,-0.875L0.25,-0.625L0.75,-0.625L0.75,-0.5L0.25,-0.5L0.25,-0.25L0.875,-0.25L0.875,-0.125L0,-0.125Z" style="fill:white;fill-rule:nonzero;"/>
            </g>
            <g transform="matrix(58.3333,0,0,58.3333,2342.15,2580.96)">
                <path d="M0.125,-0.125L0.125,-0.25L0,-0.25L0,-0.375L0.25,-0.375L0.25,-0.25L0.625,-0.25L0.625,-0.5L0.125,-0.5L0.125,-0.625L0,-0.625L0,-0.875L0.125,-0.875L0.125,-1L0.75,-1L0.75,-0.875L0.875,-0.875L0.875,-0.75L0.625,-0.75L0.625,-0.875L0.25,-0.875L0.25,-0.625L0.75,-0.625L0.75,-0.5L0.875,-0.5L0.875,-0.25L0.75,-0.25L0.75,-0.125L0.125,-0.125Z" style="fill:white;fill-rule:nonzero;"/>
            </g>
            <g transform="matrix(58.3333,0,0,58.3333,2400.49,2580.96)">
                <path d="M0.375,-0.125L0.375,-0.875L0.125,-0.875L0.125,-1L0.875,-1L0.875,-0.875L0.625,-0.875L0.625,-0.125L0.375,-0.125Z" style="fill:white;fill-rule:nonzero;"/>
            </g>
            <g transform="matrix(58.3333,0,0,58.3333,2517.15,2580.96)">
                <path d="M0,-0.125L0,-0.375L0.125,-0.375L0.125,-0.5L0.25,-0.5L0.25,-0.625L0.5,-0.625L0.5,-0.75L0.625,-0.75L0.625,-0.875L0.25,-0.875L0.25,-0.75L0,-0.75L0,-0.875L0.125,-0.875L0.125,-1L0.75,-1L0.75,-0.875L0.875,-0.875L0.875,-0.625L0.75,-0.625L0.75,-0.5L0.625,-0.5L0.625,-0.375L0.375,-0.375L0.375,-0.25L0.875,-0.25L0.875,-0.125L0,-0.125Z" style="fill:white;fill-rule:nonzero;"/>
            </g>
            <g transform="matrix(58.3333,0,0,58.3333,2575.49,2580.96)">
                <path d="M0.25,-0.125L0.25,-0.25L0.125,-0.25L0.125,-0.375L0,-0.375L0,-0.75L0.125,-0.75L0.125,-0.875L0.25,-0.875L0.25,-1L0.625,-1L0.625,-0.875L0.75,-0.875L0.75,-0.75L0.875,-0.75L0.875,-0.375L0.75,-0.375L0.75,-0.25L0.625,-0.25L0.625,-0.125L0.25,-0.125ZM0.375,-0.25L0.625,-0.25L0.625,-0.75L0.5,-0.75L0.5,-0.875L0.25,-0.875L0.25,-0.375L0.375,-0.375L0.375,-0.25Z" style="fill:white;fill-rule:nonzero;"/>
            </g>
            <g transform="matrix(58.3333,0,0,58.3333,2633.82,2580.96)">
                <path d="M0,-0.125L0,-0.375L0.125,-0.375L0.125,-0.5L0.25,-0.5L0.25,-0.625L0.5,-0.625L0.5,-0.75L0.625,-0.75L0.625,-0.875L0.25,-0.875L0.25,-0.75L0,-0.75L0,-0.875L0.125,-0.875L0.125,-1L0.75,-1L0.75,-0.875L0.875,-0.875L0.875,-0.625L0.75,-0.625L0.75,-0.5L0.625,-0.5L0.625,-0.375L0.375,-0.375L0.375,-0.25L0.875,-0.25L0.875,-0.125L0,-0.125Z" style="fill:white;fill-rule:nonzero;"/>
            </g>
            <g transform="matrix(58.3333,0,0,58.3333,2692.15,2580.96)">
                <path d="M0.125,-0.125L0.125,-0.25L0,-0.25L0,-0.375L0.25,-0.375L0.25,-0.25L0.625,-0.25L0.625,-0.625L0,-0.625L0,-1L0.75,-1L0.75,-0.875L0.25,-0.875L0.25,-0.75L0.75,-0.75L0.75,-0.625L0.875,-0.625L0.875,-0.25L0.75,-0.25L0.75,-0.125L0.125,-0.125Z" style="fill:white;fill-rule:nonzero;"/>
            </g>
        </g>
    </g>
</svg>
